<?xml version="1.0" standalone="no"?>
<!DOCTYPE svg PUBLIC "-//W3C//DTD SVG 20010904//EN"
 "http://www.w3.org/TR/2001/REC-SVG-20010904/DTD/svg10.dtd">
<svg version="1.0" xmlns="http://www.w3.org/2000/svg"
 width="1024.000000pt" height="1024.000000pt" viewBox="0 0 1024.000000 1024.000000"
 preserveAspectRatio="xMidYMid meet">

<g transform="translate(0.000000,1024.000000) scale(0.100000,-0.100000)"
fill="#000000" stroke="none">
<path d="M5073 9455 c-60 -26 -63 -43 -63 -360 l0 -287 29 -28 c53 -54 118
-50 159 10 22 32 22 39 22 319 0 318 0 320 -66 347 -40 17 -41 17 -81 -1z"/>
<path d="M4053 9135 c-39 -17 -63 -51 -63 -90 0 -57 99 -322 131 -351 11 -10
37 -17 63 -18 37 -1 50 4 75 28 19 18 31 40 31 55 0 24 -66 225 -102 311 -26
61 -81 88 -135 65z"/>
<path d="M6083 9125 c-12 -8 -32 -45 -46 -82 -42 -113 -86 -237 -92 -260 -13
-46 48 -113 103 -113 32 0 84 43 98 80 7 19 31 86 53 149 49 136 52 178 15
215 -31 30 -95 36 -131 11z"/>
<path d="M3055 8768 c-15 -12 -34 -37 -42 -56 -14 -33 -13 -37 14 -78 73 -113
250 -348 272 -362 33 -22 96 -20 123 4 11 11 27 34 35 52 12 28 11 36 -2 63
-28 52 -273 377 -294 388 -32 17 -76 13 -106 -11z"/>
<path d="M7065 8779 c-12 -5 -48 -49 -80 -95 -33 -47 -90 -127 -127 -177 -93
-127 -94 -129 -79 -177 13 -46 58 -80 103 -80 39 0 77 37 169 168 191 271 191
271 142 331 -31 36 -90 50 -128 30z"/>
<path d="M4280 8291 c-173 -38 -318 -112 -447 -228 -86 -77 -182 -200 -226
-290 -24 -49 -36 -63 -53 -63 -34 0 -153 -39 -219 -72 -152 -77 -309 -216
-384 -342 -44 -74 -100 -221 -101 -265 0 -28 -12 -46 -67 -105 -124 -130 -182
-240 -210 -395 -18 -104 -10 -255 18 -346 l19 -62 -46 -49 c-91 -96 -170 -233
-199 -345 -28 -105 -28 -109 -29 -239 0 -143 20 -232 78 -350 61 -123 154
-240 220 -275 20 -11 34 -24 32 -30 -24 -54 -65 -202 -70 -249 -8 -78 9 -208
39 -305 42 -132 173 -290 295 -357 50 -27 53 -31 65 -94 4 -19 28 -75 52 -123
86 -168 243 -303 420 -364 l83 -28 0 -50 c1 -158 107 -379 255 -528 75 -76
194 -157 277 -189 56 -22 74 -38 43 -38 -26 0 -88 -36 -123 -71 -68 -67 -101
-173 -82 -262 11 -56 62 -144 87 -154 11 -4 7 -13 -15 -37 -53 -55 -75 -113
-76 -196 -1 -62 4 -85 26 -131 29 -60 94 -127 146 -150 25 -11 30 -18 25 -34
-4 -11 -6 -49 -6 -84 2 -79 36 -153 97 -209 45 -42 137 -82 186 -82 18 0 30
-5 30 -13 0 -7 15 -44 33 -82 62 -129 164 -215 307 -261 74 -23 479 -32 624
-14 190 24 313 113 398 287 35 73 43 83 66 83 87 0 202 82 249 178 24 50 28
68 27 144 0 82 1 87 22 92 13 4 45 28 72 54 115 112 123 294 18 419 l-25 30
29 28 c42 41 71 114 72 189 2 115 -73 227 -174 264 -27 9 -48 19 -48 23 0 3
26 16 58 29 130 53 306 198 389 320 93 137 144 283 153 442 0 3 14 9 31 13 46
10 133 50 197 91 144 91 259 246 312 422 12 39 27 72 33 72 18 0 117 52 117
62 0 4 6 8 14 8 18 0 97 86 139 152 43 67 82 165 97 245 20 99 9 263 -24 358
l-27 80 79 82 c65 67 89 100 136 194 119 239 136 463 51 690 -41 112 -81 179
-162 275 l-63 73 22 68 c18 56 22 93 22 213 1 126 -2 154 -22 214 -44 130
-106 228 -206 326 -28 27 -46 53 -46 67 0 38 -67 211 -109 282 -50 84 -155
199 -236 256 -100 72 -203 115 -381 161 -7 1 -31 39 -55 84 -109 205 -298 375
-498 451 -339 127 -709 46 -940 -207 l-52 -57 -50 57 c-28 31 -79 77 -114 101
-72 52 -209 119 -275 135 -25 6 -54 13 -65 16 -11 2 -72 7 -135 9 -90 4 -134
1 -200 -14z m1677 -216 c32 -8 96 -34 143 -57 68 -34 103 -60 175 -133 95 -95
141 -166 183 -285 61 -172 27 -417 -65 -480 -62 -43 -81 -116 -44 -176 21 -34
75 -64 115 -64 34 0 87 22 105 43 12 15 40 17 215 17 230 0 320 -16 415 -73
125 -75 236 -246 250 -385 6 -60 -2 -198 -12 -208 -2 -3 -28 7 -58 20 -56 26
-145 51 -214 60 -22 3 -41 5 -42 6 -2 0 -3 6 -3 14 0 8 -13 39 -29 70 -85 161
-217 246 -386 247 -69 0 -94 -4 -147 -26 -81 -35 -116 -40 -178 -25 -36 9 -56
20 -71 41 -85 120 -271 38 -239 -106 4 -19 14 -43 21 -52 27 -32 94 -66 143
-72 49 -6 51 -7 49 -36 -15 -182 -15 -179 6 -238 43 -123 138 -201 270 -223
135 -22 222 -75 296 -178 63 -89 103 -121 166 -136 30 -7 71 -21 91 -31 100
-51 95 -199 -9 -252 -26 -14 -64 -17 -207 -17 l-175 0 -12 43 c-16 62 -75 170
-122 223 -82 93 -214 164 -337 180 -25 3 -47 8 -50 10 -2 3 -3 22 -1 44 7 108
-118 181 -198 115 -35 -30 -50 -72 -49 -136 2 -61 -30 -115 -120 -202 -102
-98 -134 -110 -317 -117 -143 -5 -153 -7 -214 -38 -35 -18 -66 -32 -68 -32 -8
0 -2 158 7 191 14 50 68 109 131 144 46 25 66 30 135 31 125 2 174 37 182 127
4 47 1 57 -24 86 -15 18 -39 37 -53 43 -40 15 -107 12 -143 -7 -18 -9 -55 -24
-83 -32 -27 -8 -71 -28 -98 -44 -26 -16 -49 -29 -52 -29 -3 0 -5 106 -5 235
l0 235 131 0 130 0 39 -31 c70 -56 163 -46 214 24 19 25 22 47 26 195 5 151 7
172 29 217 32 64 79 115 149 161 169 112 250 266 240 459 -8 151 -86 266 -226
333 -67 32 -82 35 -160 35 -77 1 -94 -3 -153 -31 -109 -52 -176 -143 -228
-307 -29 -88 -51 -124 -108 -175 -84 -74 -83 -78 -83 218 l0 257 29 51 c55 96
212 216 326 249 123 36 253 40 372 10z m-1373 5 c76 -12 206 -77 272 -135 79
-68 122 -140 134 -222 12 -84 13 -453 1 -453 -26 0 -107 59 -145 105 -40 50
-52 77 -90 217 -22 77 -69 137 -135 170 -158 81 -311 -89 -185 -205 15 -14 46
-30 68 -37 41 -11 42 -13 65 -87 56 -179 214 -336 381 -379 l45 -11 3 -212 2
-211 -134 0 c-74 0 -142 3 -151 6 -10 4 -30 35 -45 69 -15 34 -40 71 -55 83
-113 89 -250 -31 -201 -175 28 -81 98 -143 197 -174 49 -15 92 -19 224 -19
l164 0 -2 -229 -1 -229 -36 23 c-106 67 -226 108 -353 121 -85 8 -186 30 -238
50 -144 57 -266 207 -299 369 -40 197 73 453 234 529 26 12 40 13 68 4 103
-31 207 68 168 161 -25 61 -53 76 -153 81 l-92 5 -27 55 c-54 111 -147 142
-227 74 -62 -52 -59 -134 8 -208 l38 -41 -48 -60 c-27 -32 -56 -74 -64 -92 -9
-18 -22 -33 -29 -33 -30 0 -133 144 -172 239 -92 231 17 542 253 718 21 15 40
30 43 33 15 15 113 60 170 78 36 12 72 23 80 26 27 8 204 6 264 -4z m1320
-534 c45 -34 66 -74 73 -140 9 -88 -34 -154 -177 -266 -163 -127 -250 -287
-250 -457 l0 -63 -160 0 -160 0 0 199 0 200 59 16 c163 46 319 220 350 390 12
67 32 99 82 133 48 33 132 28 183 -12z m907 -113 c52 -27 118 -68 148 -93 57
-48 141 -153 141 -176 0 -12 -37 -14 -216 -14 l-216 0 5 28 c3 15 10 54 17 87
6 33 10 95 8 137 -2 51 1 78 8 78 5 0 53 -21 105 -47z m-3280 -53 c-3 -137 24
-232 101 -352 16 -26 27 -51 25 -55 -3 -5 -32 -21 -64 -37 -76 -36 -98 -66
-98 -131 1 -84 55 -135 141 -135 45 0 51 3 100 55 44 46 58 55 87 55 20 0 37
-5 39 -12 3 -7 -2 -37 -9 -68 -25 -103 2 -279 63 -404 76 -155 198 -273 357
-346 59 -28 123 -42 324 -75 50 -8 112 -22 138 -30 73 -25 159 -81 207 -134
l45 -50 6 -107 c9 -133 9 -204 1 -204 -3 0 -27 18 -52 40 -70 62 -177 111
-256 117 -55 5 -68 10 -81 30 -21 32 -74 63 -107 63 -47 0 -106 -30 -128 -65
-28 -45 -27 -112 3 -155 36 -55 76 -72 190 -80 56 -4 120 -15 142 -24 100 -42
212 -161 256 -274 22 -54 23 -73 29 -417 3 -198 4 -362 3 -364 -2 -3 -18 9
-36 26 -85 81 -198 139 -310 159 -29 5 -44 15 -61 43 -55 85 -114 112 -180 82
-53 -23 -73 -47 -84 -97 -12 -51 5 -104 45 -146 39 -42 62 -52 196 -87 65 -17
142 -43 170 -58 77 -41 183 -152 220 -231 30 -63 32 -74 35 -204 l4 -138 -77
0 c-90 0 -126 -15 -149 -64 -21 -45 -20 -74 4 -113 28 -46 67 -63 150 -63 l70
0 0 -67 c0 -247 -123 -433 -341 -518 -243 -96 -538 -25 -718 171 -102 112
-161 250 -161 379 0 58 5 82 28 126 l27 54 240 0 c260 1 303 8 397 60 119 66
228 216 228 312 0 106 -120 177 -207 123 -54 -33 -67 -61 -59 -135 l6 -64 -37
-24 c-69 -43 -96 -47 -320 -47 -232 0 -260 5 -317 58 -56 53 -75 95 -73 159 2
51 -2 65 -25 95 -69 90 -192 66 -228 -45 -26 -81 34 -224 135 -323 49 -48 65
-70 60 -84 -13 -41 -28 -40 -130 10 -80 38 -112 61 -161 112 -172 179 -185
398 -32 550 l48 48 208 0 c114 0 212 -4 218 -8 6 -4 26 -36 44 -72 64 -127
181 -234 271 -246 104 -15 197 106 150 194 -19 35 -68 64 -116 66 -50 2 -77
22 -109 81 -17 33 -21 57 -21 130 1 79 4 97 29 144 40 78 109 147 180 180 77
37 162 55 212 47 113 -18 131 -18 163 -2 136 71 55 261 -103 242 -66 -7 -109
5 -182 52 -113 74 -228 211 -258 310 -7 21 -5 22 51 22 84 1 123 39 123 119 0
31 -7 49 -29 73 -27 30 -34 33 -106 36 -68 4 -76 6 -72 22 8 32 -23 190 -53
268 -81 210 -256 377 -445 426 -33 8 -77 18 -97 21 -33 5 -37 9 -43 44 -4 23
-20 55 -38 76 -72 81 -197 48 -227 -61 -11 -39 -11 -53 3 -98 20 -62 72 -120
130 -145 23 -10 87 -26 141 -35 54 -9 119 -28 145 -41 86 -43 196 -173 234
-275 14 -39 40 -190 34 -197 -2 -1 -53 -3 -116 -4 l-113 -1 -25 43 c-90 160
-278 229 -453 166 -66 -23 -165 -118 -203 -193 -56 -112 -58 -227 -3 -289 55
-64 135 -57 184 15 22 32 23 42 18 106 -6 62 -4 74 15 98 31 40 95 69 137 63
52 -9 98 -50 117 -104 51 -142 36 -135 267 -134 l183 1 35 -92 c45 -117 110
-215 199 -301 39 -38 71 -70 71 -71 0 -2 -22 -17 -49 -34 -67 -44 -170 -156
-208 -227 -17 -33 -39 -90 -48 -128 l-17 -67 -203 0 -203 0 -12 31 c-17 40
-70 80 -117 86 -29 4 -46 -1 -72 -19 -67 -45 -90 -115 -63 -188 l17 -44 -47
-71 c-25 -38 -52 -89 -60 -112 -7 -24 -16 -43 -21 -43 -21 0 -101 90 -127 144
-40 81 -53 161 -47 273 4 71 12 106 32 150 49 108 34 103 299 102 127 0 255
-4 285 -8 44 -6 60 -4 95 13 108 55 115 194 14 256 -56 34 -136 20 -171 -31
-14 -20 -21 -20 -283 -17 l-269 3 -50 27 c-232 123 -296 499 -133 776 18 31
78 101 132 155 l100 98 -23 52 c-62 141 -65 157 -65 277 0 100 4 124 27 183
71 183 203 286 377 295 122 6 164 33 174 113 12 102 -91 163 -226 133 -16 -3
-28 -3 -28 1 0 16 79 124 119 163 82 80 240 174 285 169 17 -2 19 -10 17 -87z
m3276 -942 c21 -14 52 -45 68 -68 27 -39 30 -51 30 -119 0 -66 -4 -82 -28
-118 -31 -48 -38 -51 -75 -24 -42 29 -98 50 -170 62 -80 14 -117 37 -132 85
-23 69 40 168 126 200 56 21 135 13 181 -18z m445 -331 c173 -64 337 -234 397
-413 33 -96 41 -278 16 -367 -52 -185 -195 -357 -360 -432 -76 -34 -121 -46
-263 -70 -168 -28 -279 -80 -370 -172 -44 -46 -53 -51 -59 -36 -4 10 -31 55
-60 100 l-54 82 66 66 c49 50 77 90 111 160 l45 94 197 3 c178 3 203 5 254 26
130 52 227 190 230 327 2 112 -20 178 -88 262 -35 42 -157 113 -196 113 -25 0
-64 27 -88 61 l-20 28 29 43 c16 24 41 68 56 99 l28 56 48 -9 c26 -5 63 -14
81 -21z m-953 -563 c145 -65 224 -196 207 -341 -10 -85 -44 -142 -132 -218
l-54 -46 -58 32 -58 33 18 37 c59 123 -54 259 -168 203 -54 -27 -75 -61 -80
-129 -2 -32 -8 -63 -14 -70 -6 -8 -60 -14 -152 -18 -123 -5 -155 -10 -231 -36
-112 -38 -195 -88 -279 -170 l-68 -64 0 172 c0 193 7 220 74 278 55 49 125 69
264 77 200 10 316 64 448 210 63 70 71 75 113 79 67 5 109 -2 170 -29z m-246
-729 c91 -18 195 -75 255 -137 72 -75 84 -92 113 -153 88 -188 48 -373 -116
-528 -47 -45 -106 -67 -196 -74 -71 -5 -87 -10 -113 -34 l-31 -27 -5 -275 c-5
-260 -6 -277 -26 -304 -29 -38 -92 -73 -134 -73 -73 0 -159 63 -178 128 -4 15
-7 185 -7 378 l0 351 35 68 c58 114 163 166 270 135 25 -8 65 -15 90 -17 138
-11 203 168 96 266 -20 19 -40 26 -84 29 -50 4 -62 1 -87 -21 -24 -20 -44 -25
-105 -29 -133 -8 -249 -80 -341 -211 -81 -115 -91 -162 -96 -432 -2 -126 0
-307 5 -400 8 -163 10 -173 41 -235 54 -109 123 -172 231 -208 195 -66 386 21
479 218 25 53 26 63 29 267 l3 213 27 6 c85 19 112 29 162 59 80 49 134 98
186 171 51 71 106 199 124 289 17 85 71 193 122 242 83 81 170 118 323 138 27
4 96 22 153 41 57 19 107 32 111 29 4 -2 16 -47 26 -99 16 -90 17 -98 0 -173
-9 -43 -29 -102 -43 -132 -25 -51 -103 -141 -122 -141 -6 0 -10 37 -10 83 0
91 -11 117 -60 142 -37 19 -63 19 -101 -1 -42 -21 -59 -68 -59 -164 l0 -80
-90 0 c-101 0 -129 -9 -153 -50 -21 -34 -21 -60 -3 -103 22 -55 58 -71 153
-68 80 2 83 1 83 -21 0 -13 -12 -47 -27 -77 -72 -141 -246 -267 -408 -295 -22
-4 -52 -12 -67 -18 -27 -10 -28 -13 -28 -88 0 -326 -199 -594 -497 -671 -99
-25 -263 -27 -343 -3 -210 62 -373 241 -398 439 -4 28 -7 286 -7 575 0 555 3
598 48 705 46 111 117 200 212 265 63 44 181 97 241 109 48 10 263 7 317 -4z
m-890 -2010 c82 -112 217 -226 305 -257 17 -7 32 -16 32 -20 0 -4 -175 -8
-390 -8 -214 0 -390 2 -390 5 0 2 20 13 45 24 98 44 214 142 296 252 28 38 53
69 54 67 2 -2 23 -30 48 -63z m913 -508 c61 -71 9 -169 -97 -182 -29 -3 -440
-5 -911 -3 -847 3 -857 3 -885 24 -15 11 -36 37 -46 56 -16 33 -17 40 -3 73
29 68 -21 65 999 62 l919 -2 24 -28z m-46 -402 c63 -33 89 -104 54 -153 -38
-54 0 -52 -971 -52 -1011 0 -953 -4 -982 73 -13 34 -12 42 2 73 9 19 31 43 49
54 32 19 52 20 926 20 769 0 897 -2 922 -15z m-129 -421 c44 -40 27 -127 -33
-164 -32 -20 -44 -20 -753 -18 -784 3 -749 1 -785 61 -24 38 -25 68 -5 110
l15 32 771 -2 c699 -2 773 -4 790 -19z m-528 -411 c3 -5 -43 -6 -101 -5 -115
4 -425 -8 -404 -15 6 -3 12 -11 12 -19 0 -11 35 -14 188 -17 l187 -2 -201 -3
c-185 -2 -204 0 -225 17 -20 16 -21 21 -10 35 12 14 47 16 282 16 147 0 270
-3 272 -7z"/>
<path d="M4326 3284 c-57 -39 -82 -114 -55 -167 22 -42 63 -77 103 -88 86 -23
169 44 169 140 1 115 -121 180 -217 115z"/>
<path d="M2303 8073 c-37 -7 -73 -59 -73 -104 0 -44 21 -68 196 -226 134 -120
173 -140 227 -112 65 33 76 107 25 165 -39 45 -305 274 -317 274 -5 0 -15 2
-23 4 -7 2 -23 1 -35 -1z"/>
<path d="M7835 8043 c-76 -66 -204 -183 -252 -230 -44 -44 -53 -58 -53 -88 0
-47 14 -71 50 -90 35 -18 73 -19 103 -3 12 6 54 41 92 78 39 37 99 93 135 125
74 65 100 100 100 133 0 88 -107 134 -175 75z"/>
<path d="M1745 7138 c-55 -30 -72 -103 -35 -150 11 -14 66 -46 127 -73 59 -26
138 -63 175 -81 83 -42 135 -45 175 -10 22 19 27 32 27 70 0 68 -29 92 -229
180 -171 76 -203 85 -240 64z"/>
<path d="M8350 7114 c-41 -20 -88 -42 -105 -49 -217 -97 -225 -103 -225 -172
0 -48 21 -78 63 -92 38 -13 59 -8 172 42 166 72 255 118 274 144 39 49 21 117
-39 148 -40 21 -55 19 -140 -21z"/>
<path d="M1733 6428 c-38 -10 -73 -51 -73 -85 0 -56 56 -113 109 -113 35 0 82
50 88 95 9 70 -54 122 -124 103z"/>
<path d="M8414 6412 c-56 -45 -55 -115 1 -158 45 -34 92 -27 129 17 38 45 36
99 -5 133 -36 31 -93 34 -125 8z"/>
<path d="M1513 5836 c-58 -26 -71 -93 -27 -145 l26 -31 235 0 c141 0 242 4
254 10 28 16 51 67 44 99 -3 16 -17 39 -31 52 -25 24 -29 24 -247 26 -173 2
-229 0 -254 -11z"/>
<path d="M8231 5836 c-54 -30 -66 -97 -25 -145 l26 -31 235 0 235 0 29 29 c17
18 29 40 29 56 0 33 -25 81 -48 94 -29 16 -452 13 -481 -3z"/>
<path d="M1696 5229 c-75 -59 -32 -179 64 -179 45 0 87 37 96 85 16 87 -89
150 -160 94z"/>
<path d="M8409 5221 c-40 -41 -41 -97 0 -140 39 -42 91 -43 131 -2 39 39 47
76 26 116 -33 62 -109 74 -157 26z"/>
<path d="M2080 4663 c-24 -9 -302 -132 -336 -149 -40 -20 -69 -72 -60 -107 3
-14 18 -39 32 -56 21 -25 33 -31 66 -31 39 0 65 10 308 122 78 36 106 60 120
104 25 73 -54 144 -130 117z"/>
<path d="M8049 4641 c-28 -29 -33 -44 -29 -86 3 -39 32 -67 98 -97 37 -17 119
-55 183 -84 134 -62 166 -66 209 -26 66 59 42 144 -53 187 -337 151 -357 156
-408 106z"/>
<path d="M2541 3762 c-59 -32 -289 -224 -307 -257 -42 -78 50 -174 132 -136
47 21 314 253 320 278 21 83 -70 155 -145 115z"/>
<path d="M7604 3771 c-37 -16 -74 -69 -70 -102 4 -35 27 -61 121 -139 128
-105 226 -170 255 -170 47 0 110 69 110 120 0 21 -74 91 -203 188 -132 101
-172 120 -213 103z"/>
<path d="M3114 3075 c-54 -37 -55 -125 -3 -169 98 -83 221 64 130 155 -33 33
-91 40 -127 14z"/>
<path d="M6987 3066 c-33 -31 -45 -90 -25 -125 21 -35 81 -65 115 -56 40 10
83 58 83 95 0 38 -24 86 -49 100 -36 19 -96 12 -124 -14z"/>
</g>
</svg>
