<?xml version="1.0" standalone="no"?>
<!DOCTYPE svg PUBLIC "-//W3C//DTD SVG 20010904//EN"
 "http://www.w3.org/TR/2001/REC-SVG-20010904/DTD/svg10.dtd">
<svg version="1.0" xmlns="http://www.w3.org/2000/svg"
 width="1024.000000pt" height="1024.000000pt" viewBox="0 0 1024.000000 1024.000000"
 preserveAspectRatio="xMidYMid meet">

<g transform="translate(0.000000,1024.000000) scale(0.100000,-0.100000)"
fill="#000000" stroke="none">
<path d="M4759 9166 c-2 -2 -29 -6 -59 -9 -30 -4 -71 -9 -90 -12 -19 -3 -69
-10 -110 -16 -346 -50 -724 -163 -1035 -309 -367 -171 -605 -315 -920 -555
-282 -215 -523 -470 -801 -847 -120 -163 -165 -233 -263 -418 -304 -570 -457
-1118 -493 -1764 -10 -181 -9 -238 6 -415 9 -113 23 -235 31 -271 8 -36 23
-117 35 -180 12 -63 28 -137 36 -165 7 -27 28 -102 45 -165 73 -270 164 -503
301 -773 139 -272 250 -440 479 -722 136 -167 400 -425 569 -557 19 -15 80
-61 135 -104 358 -279 846 -526 1305 -663 272 -81 691 -160 970 -182 428 -34
1030 52 1539 220 212 70 430 168 696 311 169 90 428 267 612 417 221 182 510
477 670 685 145 188 169 221 248 353 155 257 277 531 370 827 57 182 64 209
81 283 9 39 17 77 19 85 109 447 136 832 89 1255 -70 637 -242 1156 -556 1678
-183 304 -349 521 -571 746 -374 378 -772 662 -1259 895 -410 196 -812 310
-1281 361 -125 14 -785 23 -798 11z m716 -431 c22 -3 78 -10 125 -15 233 -28
566 -111 758 -189 385 -156 641 -293 931 -500 498 -357 984 -945 1206 -1461
18 -41 44 -100 58 -130 112 -240 206 -601 243 -930 16 -149 19 -585 4 -745
-46 -478 -215 -1016 -443 -1410 -211 -363 -401 -600 -696 -871 -296 -271 -553
-449 -906 -629 -307 -156 -562 -245 -904 -315 -310 -63 -427 -75 -776 -74
-216 0 -292 6 -525 44 -617 102 -1147 331 -1683 727 -133 99 -221 177 -398
353 -200 200 -322 346 -454 545 -294 442 -479 922 -562 1464 -26 166 -28 196
-28 516 0 305 2 357 23 500 54 369 196 806 356 1094 25 46 46 85 46 87 0 8
145 241 199 319 264 387 652 762 1062 1027 125 81 123 80 259 155 75 42 297
153 305 153 4 0 21 7 38 15 34 16 188 72 302 110 224 75 459 124 775 160 111
13 587 13 685 0z"/>
<path d="M4619 8386 c-128 -49 -218 -160 -219 -268 0 -56 32 -101 87 -119 67
-22 143 19 143 77 0 31 45 81 79 89 71 15 139 -47 172 -157 18 -58 21 -86 16
-167 -6 -108 -26 -170 -70 -218 -42 -45 -77 -58 -120 -44 -42 14 -61 35 -76
83 -34 105 -174 106 -217 2 -43 -102 27 -229 158 -290 56 -26 74 -29 158 -29
88 0 101 3 162 33 113 55 197 165 234 305 19 70 18 284 -1 365 -33 138 -128
268 -234 319 -45 22 -73 27 -146 30 -59 2 -102 -2 -126 -11z"/>
<path d="M5783 8389 c-55 -10 -124 -51 -164 -97 -39 -44 -79 -127 -79 -165 0
-99 92 -162 180 -122 33 15 43 27 60 73 27 71 53 94 104 88 53 -6 105 -51 141
-121 28 -55 30 -65 30 -174 -1 -99 -4 -124 -24 -166 -42 -94 -115 -145 -177
-125 -39 13 -58 34 -73 82 -16 50 -53 78 -103 78 -116 0 -167 -116 -105 -236
22 -43 101 -112 155 -137 101 -44 266 -29 355 32 148 101 217 252 217 475 0
168 -40 289 -129 388 -106 118 -230 159 -388 127z"/>
<path d="M6599 8183 c-56 -34 -57 -43 -60 -368 -2 -264 0 -304 14 -332 20 -38
44 -53 87 -53 43 0 87 25 110 63 19 30 20 52 20 327 0 275 -1 297 -19 324 -36
55 -100 71 -152 39z"/>
<path d="M3473 8170 c-17 -10 -37 -28 -42 -39 -17 -31 -13 -108 6 -138 10 -15
68 -60 130 -100 62 -41 113 -75 113 -77 0 -2 -50 -36 -111 -76 -119 -79 -149
-112 -149 -172 0 -73 43 -118 115 -118 44 0 62 9 140 70 33 25 113 82 179 126
136 91 166 121 166 169 0 46 -35 84 -144 157 -50 34 -126 87 -168 119 -141
107 -172 118 -235 79z"/>
<path d="M3092 7730 c-44 -27 -76 -98 -69 -153 15 -114 143 -163 223 -86 98
95 42 259 -88 259 -18 0 -48 -9 -66 -20z"/>
<path d="M6996 7719 c-105 -92 -53 -259 81 -259 84 0 139 69 130 164 -4 42
-10 55 -45 88 -35 32 -48 38 -86 38 -36 0 -52 -6 -80 -31z"/>
<path d="M2702 7420 c-18 -11 -40 -37 -48 -57 -30 -72 0 -124 121 -207 l60
-41 -160 -5 c-152 -5 -163 -7 -226 -37 -124 -58 -228 -195 -258 -341 -16 -79
-14 -273 5 -345 44 -171 151 -290 303 -337 56 -18 92 -20 315 -20 285 0 331 7
424 64 160 97 232 245 232 476 0 140 -18 230 -62 313 -39 72 -126 163 -189
194 -26 13 -101 79 -184 164 -77 77 -158 154 -179 170 -48 35 -105 39 -154 9z
m402 -562 c31 -17 71 -59 92 -98 16 -30 19 -55 18 -168 -2 -152 -13 -205 -56
-256 -55 -67 -69 -70 -300 -74 -126 -2 -228 1 -259 7 -67 15 -113 52 -144 116
-23 49 -25 65 -25 188 0 128 1 137 28 188 17 32 44 65 67 81 l40 28 259 -1
c170 0 267 -4 280 -11z"/>
<path d="M2805 6850 c-3 -5 -1 -10 4 -10 6 0 11 5 11 10 0 6 -2 10 -4 10 -3 0
-8 -4 -11 -10z"/>
<path d="M2831 6833 c-7 -8 -19 -12 -27 -9 -8 3 -14 1 -14 -3 0 -5 6 -11 13
-14 6 -2 -15 -3 -49 -2 -38 2 -71 9 -87 20 -26 17 -27 17 -36 -6 -5 -13 -10
-19 -10 -14 -1 6 -13 10 -28 9 -43 -2 -45 -3 -37 -15 4 -8 9 -7 15 2 6 10 11
11 17 3 11 -16 78 -19 357 -15 95 1 123 -2 152 -17 18 -10 24 -9 33 5 8 15 9
12 5 -12 -3 -16 -2 -23 1 -15 4 8 11 24 17 35 5 11 6 17 2 13 -4 -4 -14 0 -22
10 -12 16 -13 16 -6 -2 5 -16 3 -18 -11 -13 -10 4 -15 3 -11 -3 3 -6 2 -10 -3
-10 -10 0 -24 26 -26 45 -1 15 -31 12 -31 -2 0 -7 -4 -12 -10 -10 -5 1 -9 8
-9 14 1 7 -3 10 -8 7 -5 -3 -7 -12 -4 -20 4 -9 -2 -13 -18 -12 -17 2 -22 7
-18 20 3 12 -1 18 -12 18 -9 0 -16 -5 -16 -11 0 -5 4 -7 10 -4 5 3 7 0 5 -7
-3 -8 -14 -14 -25 -15 -22 -2 -27 13 -7 20 6 2 8 8 4 13 -4 5 -12 2 -17 -6 -8
-13 -10 -13 -10 -1 0 11 -4 10 -14 -4 -14 -19 -46 -29 -46 -14 0 4 -8 6 -17 3
-15 -5 -15 -4 -4 4 10 7 21 7 32 1 13 -6 17 -5 15 6 -3 20 -16 32 -16 14 0
-10 -3 -10 -8 -3 -5 9 -11 8 -21 -3z m-171 -18 c10 -12 10 -15 -4 -15 -9 0
-16 7 -16 15 0 8 2 15 4 15 2 0 9 -7 16 -15z"/>
<path d="M2501 6764 c-35 -35 -22 -37 17 -3 18 16 27 29 20 28 -7 -1 -24 -12
-37 -25z"/>
<path d="M3150 6743 c0 -7 9 -28 19 -46 10 -19 21 -43 25 -53 3 -11 4 -7 2 8
-2 15 0 29 3 31 3 2 0 2 -6 1 -7 -2 -13 1 -13 6 0 6 5 10 10 10 6 0 10 10 10
23 -1 21 -1 21 -12 3 -10 -18 -11 -18 -24 5 -7 13 -13 19 -14 12z"/>
<path d="M4810 7161 c-152 -49 -246 -139 -307 -294 -27 -70 -28 -77 -28 -267
0 -189 1 -197 27 -265 50 -126 148 -227 268 -277 51 -21 73 -22 315 -26 172
-2 280 0 319 8 168 33 294 150 351 323 27 83 27 90 22 254 -5 182 -15 226 -67
318 -35 62 -120 147 -180 181 -98 56 -151 64 -419 63 -207 0 -255 -3 -301 -18z
m588 -246 c55 -30 94 -73 118 -130 18 -43 20 -324 3 -376 -18 -51 -55 -97
-102 -122 -39 -21 -56 -22 -273 -25 -155 -2 -247 1 -275 8 -56 15 -121 81
-143 146 -21 61 -22 300 -2 357 19 51 60 103 109 135 50 33 91 38 333 36 178
-1 181 -1 232 -29z"/>
<path d="M3704 7126 c-46 -20 -74 -62 -74 -110 0 -52 9 -65 148 -211 228 -237
227 -254 -5 -489 l-143 -144 0 -47 c0 -40 5 -52 34 -81 28 -28 41 -34 78 -34
59 0 84 18 228 163 136 137 185 207 207 295 16 67 9 196 -14 251 -22 53 -88
133 -223 274 -92 96 -131 129 -158 137 -45 12 -40 12 -78 -4z"/>
<path d="M6415 7121 c-164 -47 -280 -162 -341 -341 -15 -45 -19 -83 -19 -205
1 -139 3 -155 28 -219 27 -69 95 -173 138 -213 42 -37 127 -82 188 -98 85 -22
628 -22 671 0 79 41 81 149 3 201 -26 17 -53 18 -318 19 -333 1 -339 2 -402
83 -55 69 -67 119 -60 255 6 135 20 171 84 224 83 69 80 68 297 65 126 -2 162
-10 74 -17 -24 -2 -46 -4 -50 -4 -5 -1 -8 -9 -9 -18 0 -14 -2 -13 -9 5 -12 28
-25 28 -43 1 -11 -14 -17 -17 -22 -9 -6 9 -10 9 -16 -1 -8 -12 -11 -11 -19 1
-5 8 -10 10 -10 5 0 -10 -33 -16 -97 -19 -13 -1 -23 -4 -23 -8 0 -4 -10 -10
-22 -13 -26 -8 -78 -54 -78 -68 0 -5 12 2 27 17 50 50 80 56 279 56 174 0 186
1 219 23 19 12 35 26 35 31 0 5 -7 2 -16 -5 -14 -12 -16 -11 -13 6 3 15 13 20
39 21 77 4 155 24 178 48 53 53 43 149 -19 181 -44 23 -591 20 -674 -4z m453
-238 c-10 -2 -26 -2 -35 0 -10 3 -2 5 17 5 19 0 27 -2 18 -5z m-188 -28 c0 -8
-7 -15 -15 -15 -8 0 -15 5 -15 11 0 5 5 7 10 4 6 -3 10 -1 10 4 0 6 2 11 5 11
3 0 5 -7 5 -15z m70 -5 c0 -5 -4 -10 -10 -10 -5 0 -10 5 -10 10 0 6 5 10 10
10 6 0 10 -4 10 -10z m60 6 c0 -2 -7 -7 -16 -10 -8 -3 -12 -2 -9 4 6 10 25 14
25 6z"/>
<path d="M7375 7041 c-23 -10 -49 -30 -58 -44 -21 -33 -22 -95 -1 -125 8 -12
98 -81 200 -153 101 -72 187 -135 191 -142 3 -6 1 -13 -6 -15 -25 -8 -328
-216 -360 -247 -80 -78 -32 -205 78 -205 30 0 138 68 411 259 96 67 185 136
198 154 49 69 25 107 -141 226 -62 44 -181 130 -266 191 -85 60 -160 110 -167
110 -7 0 -18 2 -26 5 -7 2 -31 -4 -53 -14z"/>
<path d="M7586 5952 c-57 -19 -146 -96 -188 -162 -49 -78 -71 -169 -66 -285 3
-83 9 -110 31 -156 30 -63 96 -134 163 -176 24 -16 44 -31 44 -35 0 -3 -15
-16 -34 -28 -50 -30 -139 -130 -164 -183 -12 -25 -29 -85 -39 -133 -16 -83
-16 -91 0 -153 49 -183 158 -303 303 -330 56 -11 89 2 123 45 45 57 19 126
-64 173 -79 45 -109 94 -113 187 -4 65 -1 79 22 117 29 51 80 99 136 127 22
11 42 20 45 20 3 0 5 -59 5 -130 0 -147 9 -179 62 -206 38 -20 110 -14 138 11
40 36 50 77 50 204 0 90 3 121 13 121 6 0 40 -18 73 -39 52 -33 66 -49 93
-102 62 -124 28 -235 -95 -314 -87 -56 -105 -118 -51 -181 19 -22 34 -28 78
-32 74 -6 137 26 211 107 69 74 105 147 120 246 28 178 -44 340 -202 457 l-34
25 31 17 c52 26 136 117 165 177 50 103 60 201 33 318 -20 83 -55 147 -116
210 -104 108 -223 130 -291 54 -49 -54 -23 -133 57 -173 94 -47 141 -153 115
-262 -10 -40 -24 -63 -61 -100 -47 -47 -125 -92 -141 -82 -4 3 -8 63 -8 134
l0 129 -31 35 c-39 45 -84 55 -136 30 -60 -30 -73 -67 -73 -211 l0 -123 -42
17 c-68 26 -128 80 -155 140 -21 45 -23 62 -18 108 10 73 53 138 122 182 63
40 89 84 79 135 -14 75 -92 104 -190 70z"/>
<path d="M1860 5919 c-91 -38 -117 -161 -48 -228 63 -62 152 -57 213 11 30 33
35 45 35 88 0 45 -4 56 -38 92 -33 35 -45 41 -88 44 -27 2 -60 -1 -74 -7z"/>
<path d="M5073 5756 c-100 -25 -199 -110 -241 -206 -22 -51 -21 -167 3 -207
20 -35 81 -73 115 -73 37 0 90 31 107 63 10 21 13 44 9 74 -11 86 50 146 125
124 56 -17 79 -52 79 -120 0 -35 6 -65 16 -79 31 -45 109 -66 155 -41 11 5 33
28 49 51 24 33 30 51 30 94 0 214 -227 376 -447 320z"/>
<path d="M6905 5753 c-182 -25 -347 -178 -420 -388 -34 -98 -43 -251 -20 -358
46 -220 201 -384 425 -453 56 -17 157 -18 190 -1 35 18 70 74 70 114 0 56 -65
105 -124 94 -22 -5 -114 24 -154 46 -58 34 -128 117 -154 183 -18 45 -22 76
-23 165 0 101 2 115 28 167 61 123 150 190 273 204 71 8 109 28 136 72 32 51
3 118 -62 144 -28 11 -119 17 -165 11z"/>
<path d="M3585 5716 c-74 -15 -115 -36 -172 -89 -71 -65 -98 -120 -98 -198 0
-53 4 -72 20 -89 72 -80 175 -55 210 50 30 91 124 126 207 77 56 -33 80 -60
115 -127 25 -50 28 -64 28 -165 0 -127 -12 -177 -58 -237 -50 -65 -90 -88
-154 -88 -89 0 -143 41 -143 108 0 24 -9 42 -29 63 -25 24 -38 29 -79 29 -43
0 -55 -5 -81 -31 -36 -36 -45 -64 -39 -124 17 -145 165 -272 332 -283 131 -8
241 34 336 128 101 102 149 225 157 400 9 200 -44 349 -168 470 -48 47 -82 71
-125 88 -72 27 -177 35 -259 18z"/>
<path d="M2925 5701 c-35 -22 -252 -242 -284 -289 -48 -70 -73 -152 -72 -239
1 -171 78 -304 277 -478 80 -69 90 -75 131 -75 81 0 123 42 123 121 0 38 -8
48 -134 179 -139 145 -166 185 -166 243 0 69 4 75 198 279 98 105 102 111 102
154 0 54 -23 92 -67 110 -44 19 -72 17 -108 -5z"/>
<path d="M4494 5710 c-84 -34 -167 -206 -201 -415 -27 -172 4 -369 83 -526 62
-125 117 -163 195 -140 81 24 93 101 34 219 -59 119 -78 213 -72 362 5 132 11
158 72 287 53 114 43 176 -35 207 -45 18 -47 18 -76 6z"/>
<path d="M5769 5697 c-73 -49 -75 -111 -5 -231 61 -107 80 -192 74 -339 -5
-121 -26 -190 -87 -286 -38 -60 -46 -100 -28 -142 20 -47 49 -70 94 -75 56 -7
101 20 140 86 132 220 161 531 73 766 -77 207 -168 284 -261 221z"/>
<path d="M1830 5414 c-78 -52 -85 -152 -15 -200 61 -42 75 -62 75 -104 0 -33
-6 -46 -27 -63 -82 -68 -93 -83 -93 -132 0 -40 5 -52 34 -81 30 -30 40 -34 85
-34 62 0 97 16 141 67 116 131 120 361 9 487 -23 26 -54 53 -70 61 -37 20
-109 19 -139 -1z"/>
<path d="M4910 5002 c-69 -33 -94 -83 -88 -176 8 -112 74 -205 186 -262 51
-26 67 -29 157 -29 120 0 167 18 248 94 98 92 134 219 88 309 -64 125 -231 80
-231 -61 0 -62 -13 -85 -57 -103 -44 -19 -89 -10 -125 24 -25 23 -28 33 -28
92 0 58 -3 70 -24 89 -26 24 -97 37 -126 23z"/>
<path d="M1875 4586 c-17 -7 -45 -30 -63 -50 -26 -30 -32 -45 -32 -84 0 -89
56 -142 149 -142 42 0 56 5 85 31 70 61 67 150 -6 213 -23 20 -49 36 -59 36
-10 0 -23 2 -31 5 -7 2 -27 -2 -43 -9z"/>
<path d="M2453 4540 c-17 -10 -37 -28 -42 -39 -8 -13 -11 -262 -11 -779 0
-751 0 -760 21 -785 47 -61 149 -52 186 15 17 31 18 80 21 765 3 809 5 783
-60 823 -41 25 -74 25 -115 0z"/>
<path d="M5923 4419 c-41 -26 -67 -81 -59 -124 5 -22 35 -66 93 -132 47 -54
111 -127 142 -163 31 -36 79 -90 106 -120 28 -30 61 -67 73 -82 l24 -26 -179
-203 c-245 -278 -252 -286 -259 -325 -8 -45 12 -92 50 -115 34 -21 87 -25 116
-9 23 12 505 552 531 595 24 38 24 78 2 113 -48 74 -478 570 -517 595 -34 23
-84 21 -123 -4z"/>
<path d="M4462 4409 c-115 -15 -219 -95 -269 -209 -21 -47 -24 -66 -21 -135 5
-101 29 -152 114 -243 l63 -69 -36 -34 c-65 -62 -131 -166 -143 -226 -31 -145
48 -296 189 -362 49 -23 69 -26 156 -26 93 0 105 3 166 33 98 49 154 117 185
220 33 115 -2 219 -114 334 l-65 67 67 68 c90 92 120 155 120 253 -1 98 -34
170 -116 245 -81 75 -171 101 -296 84z m134 -263 c49 -49 45 -75 -23 -152
l-57 -65 -53 58 c-66 73 -70 108 -19 159 28 28 42 34 76 34 34 0 48 -6 76 -34z
m-12 -633 c51 -64 55 -84 27 -127 -39 -59 -96 -71 -152 -33 -47 32 -64 70 -49
108 14 32 95 109 116 109 7 0 33 -26 58 -57z"/>
<path d="M3720 4256 c-51 -35 -402 -403 -423 -443 -22 -42 -13 -76 34 -131 88
-102 366 -385 390 -398 47 -24 94 -18 134 17 40 36 56 81 42 123 -5 15 -66 87
-135 160 -70 72 -140 146 -156 164 l-30 32 135 138 c75 75 148 153 162 173 44
59 33 129 -29 170 -39 26 -82 24 -124 -5z"/>
<path d="M5191 4255 c-42 -36 -56 -84 -38 -127 8 -18 79 -102 158 -186 79 -85
144 -160 144 -167 0 -7 -61 -77 -135 -155 -192 -202 -208 -237 -142 -311 36
-40 107 -51 149 -23 28 17 271 265 372 377 66 74 76 99 56 141 -21 44 -349
398 -421 455 -39 30 -104 28 -143 -4z"/>
<path d="M2952 4197 c-57 -32 -57 -28 -60 -452 -3 -349 -2 -393 13 -421 20
-38 52 -54 106 -54 33 0 48 7 75 34 l34 34 2 134 c1 73 0 252 -2 398 -3 286
-6 306 -57 329 -32 14 -82 13 -111 -2z"/>
<path d="M7095 4200 c-291 -5 -303 -8 -330 -60 -34 -65 -10 -138 55 -164 22
-9 40 -19 40 -24 0 -4 23 -21 51 -37 l50 -30 382 0 382 0 1 -218 c1 -120 4
-221 8 -224 12 -12 18 6 23 79 3 40 7 75 9 77 2 2 4 -35 4 -83 l0 -86 -454 0
c-503 1 -507 0 -546 -62 -28 -44 -20 -91 22 -135 l32 -33 303 0 c167 0 303 -3
303 -6 0 -4 -35 -43 -77 -88 -43 -45 -87 -98 -97 -118 -40 -76 17 -158 111
-158 48 0 68 15 166 118 34 37 99 106 145 153 l83 87 64 4 c72 4 117 29 156
86 l24 35 3 345 c3 380 0 403 -58 474 -17 20 -49 46 -73 57 -48 23 -128 24
-782 11z m2 -251 c-54 -13 -167 -18 -173 -8 -3 5 1 6 9 3 8 -3 17 -2 20 3 3 4
45 9 94 10 71 1 81 -1 50 -8z m153 -4 c0 -9 -9 -15 -25 -15 -14 0 -25 5 -25
10 0 15 -47 12 -53 -2 -3 -8 -6 -6 -6 5 -1 14 8 17 54 17 42 0 55 -3 55 -15z
m60 11 c0 -2 -11 -11 -25 -20 -23 -15 -25 -15 -25 2 0 12 8 18 25 20 14 1 25
0 25 -2z m310 -6 c0 -11 -20 -24 -41 -25 -10 -1 -15 3 -13 9 3 8 -30 9 -106 6
-69 -3 -111 -1 -114 5 -2 6 -11 1 -19 -10 -8 -11 -19 -17 -23 -12 -4 4 1 14
12 21 14 11 54 15 162 15 78 0 142 -4 142 -9z m149 -37 l-1 -48 -11 43 c-10
43 -26 57 -28 25 -1 -17 -2 -17 -6 0 -6 22 -58 23 -80 2 -18 -19 -26 -15 -17
9 5 13 20 16 75 16 l69 0 -1 -47z m-4 -261 c-9 -10 -10 2 -5 108 l5 105 3
-104 c1 -57 0 -106 -3 -109z"/>
<path d="M6149 2968 c-88 -22 -124 -44 -188 -113 -109 -120 -113 -286 -10
-396 16 -17 29 -32 29 -34 0 -1 -15 -18 -34 -38 -63 -67 -83 -183 -49 -282 26
-75 119 -163 206 -198 165 -66 363 -9 422 122 20 45 16 75 -15 114 -39 49 -97
46 -163 -9 -23 -19 -40 -24 -85 -24 -68 0 -113 23 -132 70 -11 27 -11 36 3 64
22 48 69 66 167 66 82 0 82 0 121 39 44 43 51 88 24 141 -23 45 -62 60 -155
60 -95 0 -135 16 -155 63 -18 43 -9 82 27 112 55 47 115 45 189 -5 24 -16 57
-30 72 -30 44 0 87 28 103 66 13 31 13 39 -4 77 -51 114 -218 175 -373 135z"/>
<path d="M3849 2957 c-74 -31 -98 -49 -131 -98 -30 -45 -35 -77 -17 -112 33
-65 100 -74 174 -25 64 43 119 46 174 10 22 -14 44 -38 49 -52 12 -34 -2 -81
-34 -110 -23 -23 -34 -25 -125 -26 -98 -1 -101 -1 -131 -31 -24 -24 -32 -42
-35 -80 -5 -45 -2 -52 30 -86 l34 -37 96 0 c95 0 96 0 131 -34 80 -75 24 -166
-100 -166 -41 0 -81 13 -94 30 -3 3 -16 14 -30 23 -37 25 -75 21 -112 -12 -29
-26 -33 -36 -33 -79 0 -65 39 -115 120 -157 54 -28 66 -30 164 -30 94 0 113 3
162 26 76 36 129 86 170 161 30 56 34 71 33 133 -1 81 -19 129 -69 184 l-35
38 35 39 c52 56 80 153 66 228 -23 126 -109 222 -238 265 -85 29 -181 28 -254
-2z"/>
<path d="M5062 2968 c-216 -24 -402 -170 -472 -370 -45 -127 -37 -321 18 -448
48 -111 178 -239 289 -283 152 -60 347 -52 503 21 107 50 240 212 240 292 0
46 -27 90 -64 105 -60 25 -111 3 -168 -74 -53 -72 -79 -95 -145 -127 -75 -37
-186 -38 -265 -1 -75 34 -132 88 -165 155 -24 50 -27 69 -28 157 0 90 3 106
28 157 30 61 100 131 155 155 155 65 342 3 427 -143 60 -102 229 -72 229 40 0
73 -108 218 -213 286 -100 64 -237 93 -369 78z"/>
<path d="M3110 2773 c-52 -27 -80 -75 -80 -138 0 -82 54 -135 139 -135 48 0
95 35 116 87 20 47 19 76 -4 122 -36 69 -108 96 -171 64z"/>
<path d="M7018 2771 c-50 -25 -78 -74 -78 -138 0 -86 45 -133 128 -133 109 0
177 132 116 226 -34 51 -112 72 -166 45z"/>
</g>
</svg>
