<?xml version="1.0" standalone="no"?>
<!DOCTYPE svg PUBLIC "-//W3C//DTD SVG 20010904//EN"
 "http://www.w3.org/TR/2001/REC-SVG-20010904/DTD/svg10.dtd">
<svg version="1.0" xmlns="http://www.w3.org/2000/svg"
 width="1024.000000pt" height="1024.000000pt" viewBox="0 0 1024.000000 1024.000000"
 preserveAspectRatio="xMidYMid meet">

<g transform="translate(0.000000,1024.000000) scale(0.100000,-0.100000)"
fill="#000000" stroke="none">
<path d="M4830 9025 c-8 -2 -55 -8 -105 -14 -689 -86 -1318 -352 -1905 -806
-336 -260 -716 -710 -938 -1110 -152 -274 -309 -671 -352 -890 -6 -33 -22
-103 -35 -155 -24 -96 -50 -255 -60 -365 -3 -33 -10 -89 -15 -125 -27 -185
-22 -530 10 -750 37 -245 49 -304 111 -545 58 -227 183 -537 311 -774 88 -162
279 -445 393 -581 161 -191 397 -425 535 -530 25 -19 47 -37 50 -40 11 -11
198 -149 255 -187 134 -89 505 -283 630 -328 28 -10 55 -22 60 -26 29 -21 398
-133 538 -163 336 -72 533 -91 891 -83 296 7 479 27 706 77 52 12 115 25 140
30 76 15 421 132 517 176 30 13 56 24 58 24 14 0 219 102 325 162 306 174 533
345 776 584 188 187 237 240 347 378 195 246 368 533 476 789 82 194 207 608
230 766 7 41 13 77 16 81 3 5 22 138 41 285 13 96 15 381 5 525 -17 232 -21
282 -28 310 -3 14 -7 36 -8 50 -42 361 -174 795 -355 1165 -180 369 -476 762
-806 1073 -286 269 -752 569 -1114 717 -63 25 -131 53 -150 61 -85 35 -356
113 -483 139 -10 2 -26 6 -35 9 -9 3 -35 8 -57 11 -22 4 -47 8 -55 10 -8 3
-73 14 -145 26 -109 18 -181 22 -445 24 -173 2 -322 2 -330 0z m570 -205 c299
-31 773 -145 955 -230 11 -5 49 -21 85 -36 159 -64 481 -242 641 -353 107 -74
290 -212 333 -250 102 -90 340 -335 413 -426 412 -511 676 -1106 762 -1715 18
-126 24 -196 36 -410 3 -68 1 -70 -75 -70 l-67 0 -6 68 c-4 37 -7 96 -7 132
-1 97 -35 340 -70 491 -30 131 -130 459 -149 489 -8 12 -15 10 -42 -15 -43
-42 -106 -135 -140 -211 -35 -76 -38 -147 -10 -202 22 -42 92 -112 137 -135
17 -9 35 -22 41 -29 12 -14 24 -266 14 -272 -5 -4 -169 64 -276 113 -11 5 -56
25 -100 44 -44 19 -121 53 -172 75 -50 23 -103 44 -117 48 -35 8 -43 21 -49
85 -3 30 -15 77 -27 103 -13 27 -19 51 -14 55 5 5 59 42 119 83 125 85 244
168 430 304 71 51 134 95 139 97 11 4 -122 261 -200 387 -83 134 -205 303
-316 437 -56 67 -105 123 -108 123 -3 0 -67 -47 -143 -103 -145 -109 -268
-180 -405 -237 -47 -19 -82 -40 -82 -47 0 -8 12 -40 26 -71 15 -31 46 -115 71
-187 48 -141 65 -175 88 -175 11 0 15 12 15 43 0 57 22 79 72 71 54 -9 100 11
157 68 l51 51 40 -12 c24 -7 52 -27 73 -51 19 -22 39 -40 45 -40 29 0 0 46
-74 116 -52 49 -64 66 -64 91 0 67 25 82 56 36 10 -16 39 -50 64 -78 26 -27
57 -67 69 -87 26 -44 41 -49 41 -13 0 16 -23 50 -65 99 -65 75 -86 110 -78
134 7 18 38 14 58 -8 10 -11 26 -20 35 -20 14 0 16 8 12 53 -3 40 0 56 12 66
20 17 32 8 91 -69 110 -143 322 -497 313 -521 -4 -11 -200 -149 -418 -296
-102 -69 -192 -132 -201 -140 -15 -13 -23 -11 -67 12 -76 40 -153 50 -232 32
-72 -17 -80 -15 -80 16 0 18 -19 113 -45 227 -24 110 -183 589 -201 609 -2 2
-38 -8 -81 -22 -279 -93 -364 -115 -648 -167 -325 -60 -591 -90 -797 -90 l-68
0 0 -595 c0 -480 3 -595 13 -595 7 0 71 11 142 25 72 14 135 25 141 25 11 0
77 -120 70 -127 -2 -2 -16 -6 -32 -9 -16 -3 -62 -14 -102 -24 -40 -11 -101
-24 -135 -30 -107 -19 -97 2 -97 -196 l0 -174 968 0 968 0 30 31 c61 64 162
79 229 33 21 -14 45 -34 54 -45 15 -19 36 -19 606 -22 l590 -2 0 -65 c0 -36
-4 -68 -10 -72 -5 -4 -271 -8 -590 -8 l-581 0 -17 -30 c-37 -63 -155 -92 -224
-57 -16 9 -44 32 -61 51 l-31 36 -966 0 -965 0 0 -173 0 -174 82 -11 c45 -7
83 -13 84 -15 2 -2 -5 -30 -15 -62 l-18 -60 -66 2 -67 1 0 -484 c0 -454 1
-484 18 -484 145 -1 821 -53 841 -64 3 -2 38 -7 76 -10 141 -14 590 -97 627
-117 9 -5 19 -9 21 -9 3 0 20 35 37 78 18 42 47 109 65 147 18 39 42 93 55
120 12 28 30 68 41 91 10 22 32 83 49 135 l31 94 107 0 c96 0 113 3 166 28
l60 28 53 -26 c30 -14 57 -25 61 -25 4 0 18 -9 30 -19 l24 -18 -20 -66 c-19
-64 -24 -70 -167 -210 l-147 -143 4 -102 c3 -80 1 -103 -10 -107 -16 -6 -139
30 -159 46 -8 7 -10 17 -4 28 5 9 12 37 16 62 7 49 -8 74 -40 67 -14 -2 -70
-129 -101 -228 -4 -11 14 -21 68 -38 218 -71 441 -165 478 -202 3 -3 25 -18
50 -34 25 -16 55 -38 67 -49 28 -25 26 -27 158 131 109 130 241 322 314 455
43 80 114 237 109 243 -2 1 -66 32 -143 69 -77 37 -174 83 -215 102 -41 20
-160 78 -264 130 l-188 94 -37 -24 c-79 -52 -162 -61 -236 -26 -118 56 -158
197 -85 298 60 83 165 114 255 77 71 -30 135 -107 135 -163 0 -18 6 -35 13
-37 6 -2 26 -8 42 -13 26 -8 35 -5 70 23 22 18 96 67 165 110 166 102 347 224
442 296 79 60 113 71 121 41 11 -41 7 -107 -7 -128 -8 -12 -81 -69 -163 -126
-279 -195 -321 -222 -357 -224 -32 -3 -116 -50 -116 -65 0 -4 35 -23 78 -43
42 -19 139 -65 214 -101 76 -36 140 -66 142 -66 3 0 48 -21 101 -47 52 -25 97
-44 99 -42 2 2 29 78 59 169 67 197 136 478 164 670 l8 55 74 3 73 3 -7 -53
c-11 -85 -54 -316 -76 -408 -206 -875 -708 -1591 -1479 -2107 -368 -246 -808
-428 -1265 -522 -275 -57 -698 -85 -920 -61 -44 5 -108 12 -143 15 -118 12
-427 74 -552 110 -443 130 -899 370 -1275 672 -247 198 -540 529 -741 833
-169 257 -353 686 -434 1007 -33 133 -68 323 -75 408 -4 44 -8 85 -9 90 0 6
29 11 66 13 l67 3 5 -33 c3 -18 11 -62 16 -98 22 -129 61 -304 95 -418 56
-191 70 -233 112 -329 l14 -33 87 44 c48 24 146 69 217 101 72 31 156 70 187
86 l58 29 52 -32 c29 -17 55 -33 57 -35 16 -12 -70 -62 -316 -184 -156 -77
-282 -143 -280 -147 2 -4 32 -65 66 -135 58 -119 204 -350 288 -456 80 -100
205 -241 213 -241 5 0 15 6 22 13 20 20 206 128 283 165 88 42 241 103 320
127 33 10 61 19 63 20 1 1 -7 24 -19 51 -34 78 -97 262 -101 292 -2 20 1 27
15 26 9 0 36 -1 60 -2 43 -2 44 -3 69 -59 32 -71 81 -187 98 -230 14 -38 30
-40 105 -18 53 17 279 62 465 94 172 30 227 37 515 67 28 2 152 7 278 11 l227
6 0 483 0 483 -27 -8 c-16 -5 -89 -23 -163 -40 -74 -18 -189 -45 -255 -61
-187 -45 -217 -51 -220 -48 -4 4 -25 107 -25 122 0 7 29 19 68 29 97 25 473
117 497 122 67 15 121 30 125 36 3 4 4 82 2 173 l-3 166 -786 0 -785 0 6 23
c3 12 6 46 6 75 l0 52 778 0 c428 0 781 2 783 4 2 2 3 83 1 179 l-3 175 -42 7
c-50 7 -74 12 -377 71 -129 25 -327 65 -440 90 -301 67 -391 95 -359 114 6 4
14 28 16 54 4 30 10 46 19 46 11 0 215 -39 284 -55 60 -13 291 -61 415 -85 83
-16 170 -34 195 -40 51 -11 269 -50 282 -50 4 0 8 268 8 595 l0 595 -189 0
c-104 0 -196 3 -204 6 -8 3 -30 -8 -48 -24 -19 -16 -71 -48 -117 -72 -99 -51
-149 -104 -198 -210 -49 -105 -49 -105 -70 -102 -49 8 -100 118 -110 234 -4
56 -1 91 14 152 11 43 18 84 16 91 -3 7 -81 32 -177 55 -94 23 -243 67 -331
97 -121 41 -161 51 -167 41 -24 -39 -96 -281 -140 -473 -11 -49 -24 -93 -28
-98 -4 -4 -27 0 -51 8 -57 20 -272 132 -347 181 -175 113 -230 151 -341 234
-67 50 -122 94 -122 99 0 4 36 54 80 110 66 82 85 101 107 101 21 0 55 -29
162 -140 75 -77 149 -144 164 -150 16 -5 62 -10 103 -10 l74 0 0 -46 c0 -60
14 -84 48 -84 15 0 32 4 37 8 6 4 23 48 39 97 26 84 35 108 72 193 17 40 17
42 2 42 -6 0 -70 29 -142 64 -139 68 -289 164 -396 252 -35 30 -70 54 -76 54
-38 0 -293 -325 -442 -562 -167 -266 -315 -619 -396 -943 -55 -220 -104 -591
-94 -711 l5 -54 -74 0 c-53 0 -75 4 -79 14 -11 28 27 463 51 587 3 13 8 40 11
59 7 37 46 200 69 285 36 137 137 391 224 566 184 369 418 689 713 974 176
170 292 266 467 383 316 212 620 362 941 463 265 84 451 125 735 162 64 8 465
6 555 -3z m1876 -1521 c3 -6 -2 -23 -13 -37 -11 -15 -26 -45 -33 -66 -11 -35
-10 -47 10 -112 13 -41 21 -77 17 -80 -3 -4 -18 -3 -32 0 -33 8 -64 74 -72
151 -5 43 -1 60 17 93 30 52 87 80 106 51z m-4247 -29 c23 -17 66 -43 96 -57
31 -15 54 -32 52 -38 -2 -5 -23 -20 -47 -33 -36 -19 -55 -22 -95 -18 -52 6
-157 53 -163 73 -5 17 77 103 98 103 9 0 36 -14 59 -30z m593 -267 c38 -14 68
-32 68 -38 0 -7 -11 -41 -24 -76 -13 -35 -36 -113 -51 -174 -14 -60 -32 -123
-39 -140 -8 -16 -21 -55 -31 -85 -9 -30 -27 -75 -38 -99 -21 -42 -25 -45 -67
-48 -43 -4 -102 -17 -137 -30 -14 -5 -15 -1 -9 28 11 57 44 113 81 138 26 18
35 31 35 52 0 35 10 78 67 284 47 170 62 215 71 215 4 0 37 -12 74 -27z m3125
-30 c68 -184 133 -408 125 -432 -5 -16 -119 -71 -147 -71 -15 0 -27 16 -47 66
l-27 66 39 61 c45 69 46 76 24 123 -24 50 -48 44 -73 -19 -12 -29 -42 -78 -67
-107 -42 -51 -45 -58 -40 -98 3 -24 15 -64 26 -89 11 -25 20 -55 20 -66 0 -28
-55 -119 -81 -136 -20 -12 -24 -11 -39 8 -9 12 -24 48 -33 79 -25 83 -34 93
-55 62 -44 -63 -56 -72 -76 -57 -15 11 -20 30 -23 88 l-5 74 64 65 c46 47 75
89 107 155 59 121 123 216 160 238 44 25 114 46 125 36 5 -5 16 -25 23 -46z
m-4331 6 c56 -62 256 -207 450 -325 90 -54 280 -150 317 -159 16 -4 27 -14 27
-24 0 -16 -92 -297 -110 -336 -5 -11 -11 -29 -14 -40 -7 -23 -42 -46 -101 -68
-22 -8 -146 -57 -275 -109 -308 -124 -409 -162 -416 -155 -12 12 9 67 57 148
l50 84 -6 215 c-11 431 -17 461 -96 546 l-50 52 37 59 c97 151 96 150 130 112z
m1427 -41 c37 -28 67 -82 67 -120 0 -49 -18 -49 -60 -2 -42 48 -54 77 -46 108
7 29 15 32 39 14z m-37 -176 c18 -26 34 -52 38 -58 8 -15 -31 -64 -52 -64 -18
0 -62 38 -62 55 0 22 31 115 38 115 4 0 21 -21 38 -48z m2320 40 c16 -10 26
-46 18 -66 -4 -10 -18 -16 -40 -16 -32 0 -34 2 -34 35 0 41 29 65 56 47z
m-202 -28 c11 -10 16 -34 16 -75 0 -56 -1 -59 -24 -59 -32 0 -36 8 -43 76 -4
42 -1 59 8 65 19 12 25 11 43 -7z m-296 -26 c5 -42 -22 -72 -81 -91 -82 -26
-100 -23 -141 25 -68 79 -46 99 109 95 l110 -2 3 -27z m-707 -18 c23 -13 25
-43 3 -61 -28 -23 -124 -48 -149 -39 -29 11 -75 67 -75 91 0 17 8 19 101 19
55 0 109 -5 120 -10z m-1186 -205 c18 -49 26 -53 46 -29 12 14 14 14 20 -3 4
-10 8 -40 8 -66 1 -58 33 -124 95 -197 43 -50 46 -57 46 -112 0 -55 -1 -58
-25 -58 -43 0 -74 22 -97 69 -27 57 -120 151 -176 180 -23 12 -42 26 -42 31 0
12 41 122 50 135 4 6 13 34 20 63 14 61 27 58 55 -13z m875 -34 c13 -26 13
-158 -1 -166 -5 -4 -21 -4 -35 -1 -23 6 -24 10 -24 80 0 41 3 81 6 90 8 22 41
20 54 -3z m258 -43 c8 -8 12 -56 12 -151 l0 -138 -27 3 c-25 3 -29 8 -35 48
-13 90 -9 217 8 234 19 19 26 20 42 4z m555 -1 c15 -11 17 -29 15 -142 l-3
-130 -32 -3 -33 -3 0 133 c0 152 9 178 53 145z m226 -11 c8 -9 11 -66 9 -182
l-3 -169 -30 0 -30 0 -3 169 c-2 168 2 196 33 196 7 0 18 -6 24 -14z m1261
-43 c7 -32 19 -77 27 -101 l14 -42 -47 -54 c-50 -58 -81 -72 -224 -96 -36 -6
-139 -27 -230 -47 -91 -20 -183 -38 -205 -40 l-40 -3 47 22 c26 13 65 40 87
61 44 41 56 44 96 23 30 -16 49 -12 106 23 19 12 51 21 74 21 22 0 52 8 65 17
49 34 59 55 60 120 0 34 3 68 6 77 7 19 55 21 72 4 9 -9 13 -8 16 3 22 62 27
69 45 69 16 0 22 -11 31 -57z m-4717 -18 c-3 -39 -38 -69 -63 -55 -15 8 -17
16 -10 40 13 45 20 51 48 48 23 -3 27 -7 25 -33z m3827 -110 c0 -28 7 -74 15
-101 8 -27 15 -57 15 -66 0 -16 -2 -16 -32 2 -18 11 -52 22 -75 26 -24 3 -45
10 -48 14 -3 5 9 20 27 33 29 23 31 29 29 80 -2 47 1 57 20 71 33 23 49 4 49
-59z m-1662 33 c8 -8 12 -56 12 -149 0 -112 -3 -139 -16 -150 -11 -9 -20 -10
-32 -2 -14 8 -17 32 -20 148 -3 136 3 165 32 165 7 0 17 -5 24 -12z m2056 -14
c10 -27 7 -89 -6 -102 -42 -42 -75 22 -48 92 11 29 44 35 54 10z m-2884 -90
c97 -29 190 -144 190 -236 0 -76 -51 -169 -121 -219 -86 -61 -220 -52 -296 20
-93 88 -118 192 -69 294 39 81 71 112 148 138 66 23 81 23 148 3z m1078 -121
c-3 -125 -5 -138 -22 -141 -10 -2 -22 0 -28 6 -12 12 -18 232 -6 255 5 9 20
17 34 17 l25 0 -3 -137z m-460 115 c14 -14 16 -87 2 -122 -10 -28 -38 -34 -58
-14 -19 19 -15 118 6 134 21 17 35 17 50 2z m-2024 -4 c22 -8 20 -38 -13 -179
l-27 -120 -29 0 c-29 0 -30 1 -27 45 3 42 47 234 58 252 6 10 17 10 38 2z
m6109 -67 c31 -69 29 -95 -7 -81 -37 14 -82 125 -59 148 18 17 39 -4 66 -67z
m-968 34 c88 -40 157 -159 141 -244 l-6 -32 102 -44 c57 -25 135 -59 173 -77
97 -45 494 -220 544 -240 l41 -16 0 -74 c0 -62 -3 -74 -17 -74 -9 0 -96 35
-192 79 -97 43 -212 93 -256 111 -44 18 -162 73 -263 121 l-183 88 -47 -21
c-64 -27 -154 -27 -208 0 -118 60 -167 198 -110 310 29 58 58 85 116 111 56
25 113 26 165 2z m-2387 -123 c12 -12 17 -104 6 -132 -4 -10 -18 -16 -35 -16
l-29 0 0 73 c0 41 3 77 7 80 10 11 38 8 51 -5z m536 6 c13 -5 16 -22 16 -86
l0 -79 -32 3 -33 3 -3 68 c-4 84 10 107 52 91z m1396 -91 l-5 -68 -90 -23
c-218 -57 -484 -108 -509 -99 -7 3 -13 29 -14 64 l-1 59 62 13 c34 7 143 33
242 57 211 51 261 61 295 63 25 1 25 0 20 -66z m-885 17 c56 -26 69 -39 94
-87 68 -135 -55 -293 -204 -261 -82 18 -139 82 -151 169 -5 38 -1 52 28 99 55
91 146 122 233 80z m-2845 -76 c11 -26 20 -52 20 -58 0 -29 -155 -101 -645
-299 -170 -69 -341 -139 -380 -156 -38 -16 -74 -26 -78 -22 -4 4 -7 39 -5 76
l3 68 90 33 c50 19 99 38 110 43 44 22 463 197 625 261 52 21 124 52 160 68
36 17 68 31 72 31 4 1 16 -20 28 -45z m-1010 -162 c0 -43 -3 -50 -25 -60 -41
-19 -45 -15 -45 41 0 62 3 67 42 67 27 0 28 -2 28 -48z m4785 29 c8 -25 102
-116 150 -146 44 -26 44 -27 -50 -44 -87 -16 -125 -49 -140 -123 -5 -26 -7
-27 -54 -21 -71 8 -82 -30 -25 -91 l28 -29 -24 -19 c-18 -14 -26 -16 -37 -6
-21 17 -45 65 -68 133 -16 48 -28 65 -65 92 -25 18 -75 55 -112 83 -40 30 -73
48 -82 44 -19 -7 -29 -38 -21 -64 6 -20 105 -102 163 -136 30 -17 44 -44 22
-44 -5 0 -17 -15 -26 -32 -20 -41 -64 -88 -80 -88 -19 0 -44 29 -44 51 0 14 7
19 25 19 27 0 65 45 49 59 -5 4 -44 33 -86 65 -43 31 -83 65 -90 76 -7 11 -18
20 -25 20 -26 0 -190 -91 -220 -122 -18 -18 -41 -54 -53 -80 l-21 -48 -87 0
c-75 1 -91 4 -114 23 -25 21 -26 24 -16 74 l10 51 82 4 c68 3 92 9 150 38 65
32 108 67 148 117 11 15 32 24 65 28 60 7 130 19 258 45 166 33 227 48 285 68
72 26 97 26 105 3z m-3660 -91 c10 -11 40 -34 66 -51 42 -26 47 -34 38 -50
-12 -24 -23 -24 -78 1 -24 11 -48 20 -55 20 -7 0 -10 17 -8 50 4 55 10 60 37
30z m-155 -50 c0 -25 -4 -30 -24 -30 -31 0 -121 -37 -172 -72 -50 -33 -120
-110 -142 -155 l-16 -33 -140 0 c-78 0 -147 4 -154 9 -27 16 -8 44 43 64 145
56 203 80 230 92 17 8 91 39 165 70 74 30 149 62 165 70 42 20 45 19 45 -15z
m884 7 c10 -41 -3 -67 -34 -67 -28 0 -40 15 -40 49 0 42 64 58 74 18z m3498
-40 c15 -12 36 -45 47 -74 11 -29 34 -76 51 -106 16 -29 30 -59 30 -65 0 -20
-31 -13 -80 18 -97 62 -205 78 -288 40 -35 -16 -56 -18 -127 -13 l-84 6 -31
-33 c-17 -18 -33 -30 -36 -27 -15 15 -24 89 -13 109 11 20 16 21 155 14 97 -5
163 -3 204 5 l60 12 0 51 c0 45 3 53 28 68 37 22 52 21 84 -5z m-3277 -142 l0
-90 -30 0 -30 0 -3 78 c-3 85 7 110 42 105 20 -3 21 -9 21 -93z m210 79 c12
-13 15 -33 13 -93 l-3 -76 -30 0 -30 0 -3 78 c-4 98 14 129 53 91z m230 -94
c0 -64 -3 -75 -18 -78 -34 -7 -47 17 -47 83 0 70 4 77 40 73 24 -3 25 -5 25
-78z m3106 36 c41 -18 118 -53 172 -76 54 -24 100 -47 103 -52 3 -4 -60 -8
-140 -8 l-145 0 -40 80 c-23 44 -41 82 -41 85 0 10 20 4 91 -29z m-4153 -8 c3
-14 -3 -18 -26 -18 -35 0 -45 9 -30 27 15 19 52 12 56 -9z m170 -37 c3 -50 -5
-70 -30 -71 -17 0 -38 35 -38 65 0 52 9 66 39 63 24 -3 26 -7 29 -57z m1076
33 c3 -9 6 -34 6 -55 0 -39 -1 -40 -32 -37 -30 3 -33 6 -36 42 -2 21 -1 44 2
52 7 19 52 18 60 -2z m744 -6 c24 -24 8 -78 -24 -78 -23 0 -45 31 -38 54 11
35 40 46 62 24z m-2352 -29 c134 -56 200 -195 159 -335 -22 -76 -97 -156 -165
-174 -67 -19 -147 -13 -205 14 -66 32 -102 68 -132 133 -71 155 10 324 179
372 67 20 99 18 164 -10z m729 -19 c0 -32 -2 -35 -30 -35 -24 0 -31 5 -33 23
-6 38 5 54 35 50 25 -3 28 -7 28 -38z m-1245 -252 c0 -29 3 -63 6 -75 l6 -23
-530 0 -530 0 -4 65 c-1 36 -1 70 0 75 2 6 195 10 528 10 l524 0 0 -52z m3890
-260 l65 -37 35 29 c35 29 37 29 161 30 142 0 130 5 185 -86 34 -57 42 -84 25
-84 -6 0 -37 -25 -70 -56 -42 -38 -71 -77 -93 -123 -30 -59 -33 -75 -33 -156
0 -78 4 -98 27 -145 15 -31 44 -75 64 -98 l36 -43 -36 -110 c-47 -142 -119
-325 -163 -413 -39 -77 -20 -73 -178 -41 -177 35 -158 23 -213 133 -46 92 -48
99 -36 132 16 45 17 93 2 108 -7 7 -28 12 -47 12 -24 0 -60 15 -109 44 -80 49
-96 50 -184 15 -38 -15 -74 -19 -166 -19 l-117 0 -48 53 c-27 28 -77 84 -113
123 l-64 71 0 186 0 185 73 92 c113 144 147 192 147 206 0 32 34 35 410 31
l375 -3 65 -36z m1063 -14 l54 -57 32 19 c23 13 31 26 31 46 l0 28 106 0 105
0 -3 -47 -3 -48 -140 -88 c-77 -48 -170 -104 -206 -125 l-66 -39 -60 101 c-87
145 -87 145 -66 153 26 9 94 57 123 87 14 13 28 25 31 25 4 1 31 -24 62 -55z
m-4831 -7 c29 -29 68 -60 86 -68 33 -14 42 -29 18 -29 -7 0 -25 -17 -39 -37
-31 -45 -30 -79 8 -152 14 -28 21 -51 15 -51 -18 0 -187 88 -262 136 -118 76
-228 193 -228 244 0 6 60 10 174 10 l175 0 53 -53z m766 14 c8 -5 12 -21 10
-37 -3 -32 -38 -45 -64 -24 -40 34 9 90 54 61z m162 -17 c11 -27 -2 -64 -21
-64 -24 0 -49 22 -49 43 0 49 54 65 70 21z m195 -19 c0 -38 -2 -40 -30 -40
-26 0 -30 4 -33 28 -5 44 4 59 35 55 25 -3 28 -7 28 -43z m233 -7 c3 -47 3
-48 -26 -48 -31 0 -42 14 -42 54 0 28 19 48 45 44 16 -2 21 -12 23 -50z m216
46 c13 -5 16 -23 16 -94 0 -92 -10 -115 -47 -108 -15 3 -18 16 -21 92 -2 49
-1 95 2 103 6 14 25 17 50 7z m231 -68 c0 -73 -14 -96 -49 -83 -13 5 -16 21
-16 75 0 38 3 72 7 76 4 4 19 6 33 4 24 -3 25 -6 25 -72z m203 21 c3 -42 0
-48 -20 -56 -31 -12 -48 4 -48 44 0 52 9 66 39 63 23 -3 26 -8 29 -51z m-2688
-22 c97 -61 348 -204 665 -377 256 -141 259 -143 242 -156 -8 -7 -22 -30 -32
-52 -15 -33 -22 -39 -39 -34 -33 10 -140 65 -421 217 -364 195 -419 227 -487
280 -37 28 -38 30 -38 96 0 37 3 70 6 74 9 8 31 -2 104 -48z m5170 -26 c16
-30 5 -35 -35 -16 -43 20 -45 37 -5 37 19 0 33 -7 40 -21z m-4050 -101 c7 -24
25 -78 41 -121 41 -113 43 -109 -51 -122 l-45 -7 -28 86 c-16 47 -28 88 -28
91 0 2 -6 23 -14 46 -24 67 -23 69 48 69 l64 0 13 -42z m235 -22 c58 -26 155
-110 155 -133 0 -39 -82 -18 -193 49 -65 39 -87 66 -87 105 0 21 53 12 125
-21z m694 -114 c83 -67 108 -146 71 -228 -56 -127 -158 -158 -291 -88 l-68 36
-100 -51 c-103 -52 -121 -59 -121 -41 0 6 -9 30 -20 52 -11 23 -20 47 -20 53
0 6 24 22 53 36 28 13 73 36 98 50 26 15 54 29 64 31 10 2 25 24 36 52 35 94
104 139 203 132 46 -3 66 -11 95 -34z m4050 -91 c15 -9 9 -51 -15 -109 -11
-26 -19 -33 -36 -30 -21 3 -23 8 -22 56 2 71 34 108 73 83z m-6092 -9 c7 -4
17 -32 24 -61 12 -57 5 -75 -27 -69 -26 4 -60 104 -43 124 13 16 28 18 46 6z
m2773 -173 l0 -80 -27 3 c-28 3 -28 4 -31 81 l-3 77 31 0 30 0 0 -81z m-2507
49 c15 -23 -8 -48 -44 -48 -25 0 -29 4 -29 28 0 16 3 32 7 36 12 12 55 2 66
-16z m1003 -49 c51 -24 109 -87 125 -136 26 -81 -13 -178 -94 -230 -36 -24
-52 -28 -118 -28 -68 0 -80 3 -118 29 -135 94 -113 296 40 366 57 25 112 25
165 -1z m1229 -179 c0 -156 -2 -185 -15 -187 -37 -7 -42 11 -47 175 -5 174 1
206 40 200 22 -3 22 -5 22 -188z m-247 58 c32 -32 -18 -87 -53 -58 -19 16 -19
29 2 52 19 21 34 23 51 6z m1052 -68 c18 -25 19 -34 10 -45 -19 -22 -57 -19
-65 6 -9 28 2 69 20 69 7 0 23 -14 35 -30z m-1520 5 c86 -50 127 -65 181 -65
l57 0 30 -47 c16 -27 33 -61 37 -78 13 -59 20 -62 363 -165 142 -43 136 -55
-30 -64 -178 -9 -355 -29 -573 -66 -99 -17 -207 -35 -240 -41 -33 -5 -82 -16
-108 -24 -47 -14 -77 -12 -77 6 0 5 -11 32 -24 62 -14 29 -31 72 -39 95 l-15
42 50 36 c60 44 120 131 145 209 l19 58 68 23 c37 12 70 25 74 28 10 11 57 6
82 -9z m984 -13 c3 -5 6 -80 7 -168 1 -136 -1 -160 -15 -169 -11 -7 -22 -6
-33 1 -16 10 -18 27 -14 170 2 88 5 162 8 167 6 10 41 9 47 -1z m-1923 -192
c31 -54 35 -67 24 -79 -25 -26 -60 -5 -88 51 -30 58 -34 84 -14 91 27 12 43
-1 78 -63z m-285 5 c14 -30 30 -57 35 -60 13 -9 11 -49 -3 -63 -26 -26 -45
-12 -81 59 -49 94 -49 119 0 119 19 0 29 -11 49 -55z m5147 -17 c13 -38 -46
-65 -73 -33 -15 18 -4 52 18 58 21 4 49 -8 55 -25z m-2397 10 c4 -7 9 -37 11
-67 4 -65 -13 -97 -46 -86 -19 6 -21 14 -21 75 0 55 4 71 18 79 23 14 29 13
38 -1z m-3038 -116 c32 -60 33 -64 17 -82 -24 -27 -49 -11 -80 50 -36 71 -33
104 10 98 13 -2 31 -24 53 -66z m3320 5 c3 -42 0 -48 -20 -56 -31 -12 -48 4
-48 44 0 52 9 66 39 63 23 -3 26 -8 29 -51z m2292 0 c0 -21 -46 -111 -63 -126
-14 -11 -20 -11 -32 -1 -8 7 -15 20 -15 29 0 25 46 118 61 123 18 7 49 -9 49
-25z m-2042 -31 c4 -58 -5 -70 -40 -57 -52 20 -43 115 10 109 25 -3 27 -7 30
-52z m200 -8 c30 -30 0 -75 -43 -64 -19 5 -25 13 -25 35 0 15 3 31 7 34 11 11
48 8 61 -5z m1540 -55 c4 -24 -65 -186 -101 -240 -24 -36 -47 -42 -67 -18 -10
13 -3 34 40 123 29 59 62 120 73 135 22 32 51 32 55 0z m-4872 -1 c6 -4 21
-27 32 -52 22 -46 83 -158 108 -197 20 -32 17 -61 -7 -68 -20 -7 -59 18 -59
37 0 5 -18 37 -40 71 -57 91 -93 173 -85 197 6 20 31 26 51 12z m258 -85 c30
-60 29 -87 -3 -87 -23 0 -81 78 -81 109 0 20 27 43 45 38 6 -2 23 -29 39 -60z
m-471 -89 c42 -62 91 -132 109 -156 26 -34 30 -46 22 -60 -26 -41 -49 -26
-126 80 -132 182 -152 216 -138 233 30 36 54 19 133 -97z m5177 -33 c14 -17
14 -17 -62 -116 -73 -96 -83 -105 -103 -89 -24 20 -18 36 33 105 26 35 55 76
65 90 20 28 48 32 67 10z"/>
<path d="M4877 8607 c-32 -34 -128 -136 -214 -227 -182 -193 -349 -390 -437
-516 -61 -88 -190 -297 -201 -326 -17 -45 646 -158 926 -158 l99 0 0 645 0
645 -57 -1 c-58 0 -58 -1 -116 -62z m31 -179 c5 -27 -29 -97 -50 -104 -19 -6
-48 11 -48 26 0 5 9 29 20 55 18 41 23 46 47 43 17 -2 29 -10 31 -20z m-66
-268 c43 -12 59 -44 35 -68 -14 -13 -24 -13 -101 3 -97 20 -114 32 -94 65 12
20 19 21 68 16 30 -3 72 -10 92 -16z m34 -203 c2 -2 7 -419 5 -455 -1 -15 -87
-11 -281 15 -178 23 -410 74 -410 89 0 3 30 42 67 86 43 52 73 99 84 132 12
36 27 58 50 74 31 21 40 23 119 17 81 -7 88 -6 150 25 60 29 70 31 139 26 41
-3 76 -7 77 -9z"/>
<path d="M5200 8025 l0 -645 123 0 c118 0 220 10 517 49 83 11 319 63 363 80
15 6 27 14 27 18 0 15 -107 194 -181 303 -127 186 -289 375 -594 693 l-142
147 -57 0 -56 0 0 -645z m197 423 c19 -25 43 -98 37 -113 -4 -8 -18 -15 -33
-15 -24 0 -29 6 -45 57 -18 55 -17 57 0 70 22 16 29 16 41 1z m171 -305 c5
-33 -32 -51 -119 -59 -67 -6 -77 -4 -83 11 -3 10 0 28 9 41 16 24 50 32 140
30 43 -1 50 -4 53 -23z m309 -263 c24 -41 43 -78 43 -82 0 -4 -10 -12 -21 -19
-26 -14 -35 -6 -84 75 -38 64 -41 76 -23 94 23 23 42 7 85 -68z m-239 18 c38
-79 99 -306 88 -334 -3 -8 -16 -14 -29 -14 -22 0 -27 11 -62 133 -21 72 -46
150 -57 171 -21 47 -22 58 -6 74 22 22 44 12 66 -30z m-213 -43 c0 -49 -1 -50
-30 -50 -28 0 -30 3 -33 39 -5 54 3 68 35 64 26 -3 28 -6 28 -53z m16 -262 c7
-70 2 -83 -33 -83 -22 0 -45 84 -39 147 1 14 42 22 55 11 6 -4 13 -38 17 -75z
m555 35 c4 -15 1 -26 -12 -35 -26 -19 -68 -13 -72 10 -7 33 6 47 42 47 27 0
36 -5 42 -22z"/>
<path d="M4650 8630 c-19 -4 -60 -13 -90 -19 -60 -12 -114 -58 -231 -193 -11
-12 -60 -65 -108 -118 -150 -162 -369 -429 -451 -551 l-79 -117 47 -17 c26 -9
56 -21 67 -26 67 -30 72 -30 86 4 62 151 289 480 474 686 22 25 62 70 89 100
27 31 91 100 143 153 77 81 106 114 91 107 -2 -1 -19 -5 -38 -9z"/>
<path d="M5687 8497 c268 -277 504 -586 633 -834 52 -98 54 -101 79 -91 14 5
33 11 41 13 8 2 41 13 73 25 l58 22 -17 26 c-59 92 -246 331 -398 506 -124
145 -414 441 -432 442 -10 1 -43 6 -72 13 -104 22 -103 20 35 -122z"/>
<path d="M4030 8471 c-96 -37 -222 -90 -280 -117 -224 -107 -491 -266 -634
-377 l-38 -30 23 -19 c45 -34 135 -95 166 -111 27 -14 33 -15 43 -2 6 8 32 26
57 40 52 31 84 28 109 -11 17 -25 16 -26 -19 -62 -21 -21 -37 -41 -37 -44 0
-4 21 -14 48 -24 26 -9 51 -21 56 -26 18 -15 26 -8 58 49 35 61 142 209 242
333 50 62 238 283 256 300 47 46 149 170 139 169 -8 0 -93 -31 -189 -68z
m-305 -317 c0 -13 -32 -56 -79 -108 -64 -69 -85 -86 -108 -86 -51 0 -35 37 58
133 64 67 90 87 107 85 15 -2 22 -10 22 -24z"/>
<path d="M6020 8532 c0 -3 42 -49 93 -102 240 -249 460 -523 556 -692 18 -32
34 -58 35 -58 12 0 232 98 276 122 102 58 190 120 190 133 0 19 -212 169 -393
279 -102 61 -290 156 -392 197 -107 42 -365 128 -365 121z m704 -497 c69 -74
126 -136 126 -139 0 -22 -16 -36 -41 -36 -16 0 -29 4 -29 8 0 5 -54 64 -120
133 -127 132 -147 169 -91 169 25 0 49 -21 155 -135z"/>
<path d="M2884 7774 c-38 -36 -64 -68 -58 -70 6 -3 42 -30 80 -60 113 -90 233
-168 334 -217 52 -25 104 -47 115 -49 11 -1 23 -7 27 -13 4 -5 19 17 33 49 14
32 35 76 45 97 l20 38 -152 74 c-135 65 -293 161 -335 203 -24 23 -37 17 -109
-52z"/>
<path d="M7221 7779 c-103 -72 -225 -139 -346 -189 -60 -25 -89 -42 -87 -51 2
-8 22 -53 44 -100 l40 -87 26 14 c15 7 70 34 123 59 109 52 262 150 361 233
l68 57 -57 53 c-32 29 -65 56 -73 61 -11 6 -40 -9 -99 -50z"/>
<path d="M3580 7416 c-24 -50 -46 -94 -48 -99 -2 -4 5 -10 15 -13 10 -4 56
-22 103 -40 46 -19 87 -31 90 -26 4 4 19 43 35 87 16 44 30 85 32 91 2 6 -27
23 -64 39 -37 15 -80 33 -94 40 -26 12 -26 11 -69 -79z"/>
<path d="M6600 7486 c-14 -8 -57 -24 -97 -36 -68 -22 -71 -24 -59 -44 7 -12
26 -54 42 -93 25 -62 32 -72 49 -67 76 21 181 57 188 64 9 8 -79 190 -91 190
-4 -1 -18 -7 -32 -14z"/>
<path d="M3950 7368 c-64 -155 -69 -169 -57 -173 74 -23 123 -36 182 -49 318
-69 502 -93 785 -104 167 -6 183 -6 191 10 5 10 8 30 5 45 -2 16 -5 52 -5 81
l-1 53 -82 -3 -83 -3 -3 -43 -3 -44 -37 6 c-20 3 -77 8 -127 11 -49 4 -101 8
-115 10 -14 2 -63 9 -110 15 -125 16 -149 20 -215 33 -55 11 -61 15 -77 48
-22 46 -59 76 -112 89 -22 6 -58 18 -79 26 -47 18 -46 18 -57 -8z"/>
<path d="M6279 7386 c-5 -5 -227 -65 -264 -72 -226 -40 -382 -63 -525 -78 -25
-3 -100 -5 -167 -5 l-123 -1 0 -95 0 -95 88 0 c112 0 411 25 527 44 50 8 135
22 190 31 55 9 134 25 175 35 41 10 101 24 133 30 31 6 57 17 57 23 0 7 -16
50 -34 97 -31 78 -45 98 -57 86z"/>
<path d="M4689 3393 c-38 -45 -52 -54 -87 -59 -75 -10 -251 -35 -273 -39 -52
-9 -187 -26 -251 -32 -55 -5 -68 -3 -68 9 0 8 -6 26 -12 42 -12 25 -16 27 -58
21 -25 -4 -48 -9 -51 -11 -12 -7 67 -189 82 -188 8 1 82 13 164 27 351 60 590
86 798 87 l117 0 0 90 0 90 -164 0 -164 0 -33 -37z"/>
<path d="M5200 3340 l0 -90 79 0 c221 0 713 -57 987 -115 30 -7 31 -6 62 67
52 124 52 124 -5 131 -26 3 -118 15 -203 26 -85 11 -243 27 -350 36 -107 9
-236 20 -287 25 -50 6 -135 10 -187 10 l-96 0 0 -90z"/>
<path d="M3700 3290 c-14 -4 -55 -16 -92 -26 -38 -9 -68 -22 -68 -28 0 -11 73
-173 82 -181 5 -5 61 8 136 32 49 16 53 19 47 43 -4 14 -13 39 -21 55 -7 17
-20 48 -27 69 -15 44 -21 48 -57 36z"/>
<path d="M6482 3199 c-23 -51 -41 -93 -40 -94 7 -4 184 -55 191 -55 8 0 101
191 95 195 -6 4 -134 34 -169 40 l-36 5 -41 -91z"/>
<path d="M3250 3165 c-63 -25 -124 -49 -135 -54 -11 -5 -47 -21 -80 -36 -70
-30 -285 -163 -285 -176 0 -8 66 -72 127 -123 l32 -27 63 43 c68 46 188 100
338 154 101 37 170 65 170 70 0 17 -94 194 -103 194 -7 0 -64 -21 -127 -45z"/>
<path d="M6853 3172 c-8 -20 -28 -65 -44 -100 l-28 -63 32 -14 c18 -8 91 -35
162 -61 153 -55 263 -108 324 -157 l45 -36 65 59 c77 68 116 108 110 114 -2 2
-44 30 -94 63 -121 81 -273 152 -375 177 -14 3 -60 17 -103 30 l-78 25 -16
-37z"/>
<path d="M4860 3099 c-102 -4 -259 -14 -350 -23 -175 -18 -460 -63 -473 -75
-10 -10 12 -60 79 -176 122 -212 243 -352 675 -784 l137 -136 61 -3 61 -3 0
605 c0 333 -1 605 -2 604 -2 -1 -86 -5 -188 -9z m-513 -142 c-13 -19 -39 -65
-58 -101 -19 -36 -38 -66 -42 -66 -10 0 -45 78 -53 118 -6 28 -3 31 37 45 70
25 134 44 137 42 2 -2 -8 -19 -21 -38z m520 -64 c4 -16 8 -57 8 -93 0 -52 -3
-65 -16 -68 -30 -6 -46 24 -53 98 -7 81 -4 90 29 90 18 0 27 -7 32 -27z m-249
-15 c5 -7 22 -53 37 -102 23 -76 24 -91 13 -103 -21 -21 -46 -6 -58 35 -7 21
-18 51 -25 67 -7 17 -17 42 -20 58 -11 43 27 76 53 45z m-188 -148 c40 -76 40
-100 0 -100 -21 0 -42 23 -69 77 -24 48 -26 74 -9 91 23 23 39 8 78 -68z m438
-202 c7 -7 12 -22 12 -34 0 -26 -17 -32 -117 -40 -79 -7 -105 2 -96 37 8 27
20 33 88 40 97 10 100 10 113 -3z m2 -265 c30 -64 32 -117 5 -121 -16 -2 -29
12 -58 60 -42 71 -44 83 -19 97 33 20 49 12 72 -36z"/>
<path d="M5200 2504 l0 -604 63 0 62 0 176 178 c366 369 555 599 668 813 29
55 51 102 48 105 -18 18 -594 89 -812 100 -55 2 -124 6 -152 8 l-53 4 0 -604z
m239 417 c11 -7 12 -25 7 -82 -9 -99 -13 -109 -40 -109 -36 0 -50 23 -37 61 6
18 11 51 11 75 0 30 5 46 18 53 21 13 24 13 41 2z m255 -36 c8 -22 -56 -207
-76 -219 -13 -8 -22 -7 -34 6 -16 15 -15 22 12 100 16 46 35 93 43 106 15 25
46 29 55 7z m222 -86 c3 -6 -11 -46 -32 -88 -39 -76 -61 -94 -89 -71 -12 10
-10 20 11 68 14 31 32 67 40 80 15 23 58 30 70 11z m-431 -269 c96 -14 105
-18 105 -44 0 -41 -20 -48 -107 -37 -92 12 -109 17 -117 38 -7 17 20 53 38 53
6 0 43 -5 81 -10z m-19 -234 c3 -7 -8 -43 -25 -80 -26 -57 -33 -66 -56 -66
-14 0 -28 7 -31 15 -6 16 17 84 42 123 16 25 61 30 70 8z"/>
<path d="M3792 2945 c-46 -13 -86 -26 -89 -29 -24 -24 205 -332 412 -556 229
-246 340 -362 364 -379 16 -12 60 -25 102 -32 41 -6 80 -16 87 -21 7 -6 14 -9
16 -7 2 2 -66 76 -152 164 -359 370 -533 597 -618 809 -14 36 -29 68 -33 70
-3 2 -44 -7 -89 -19z"/>
<path d="M6340 2898 c-113 -237 -287 -467 -593 -788 -139 -146 -173 -184 -158
-175 8 5 26 10 40 11 71 7 131 23 153 40 74 58 526 554 629 689 47 62 149 221
149 233 0 4 -35 17 -78 29 -42 12 -84 24 -92 27 -12 5 -24 -12 -50 -66z"/>
<path d="M3455 2846 c-189 -69 -302 -118 -355 -155 -30 -21 -55 -43 -55 -49 0
-11 85 -78 205 -159 245 -167 571 -329 830 -413 63 -21 124 -41 135 -45 11 -5
-36 50 -105 121 -253 261 -444 504 -530 673 -17 33 -32 61 -33 61 -1 -1 -42
-16 -92 -34z m88 -243 c45 -49 107 -114 137 -146 44 -48 52 -61 44 -75 -24
-37 -45 -25 -153 90 -151 158 -164 174 -156 198 12 39 45 22 128 -67z"/>
<path d="M6674 2803 c-81 -148 -264 -376 -512 -640 l-124 -133 53 16 c294 86
597 228 859 401 198 130 270 185 270 202 0 10 -91 64 -164 99 -53 25 -325 122
-342 122 -1 0 -19 -30 -40 -67z m195 -122 c9 -16 -12 -41 -137 -170 -118 -121
-152 -151 -174 -151 -30 0 -40 16 -25 45 5 11 49 59 98 108 48 48 107 110 130
137 47 55 89 67 108 31z"/>
<path d="M2011 1224 c-44 -56 -8 -134 62 -134 68 0 100 78 56 134 -29 37 -89
37 -118 0z"/>
<path d="M2321 1224 c-56 -71 17 -161 104 -128 19 8 45 55 45 84 0 64 -108 96
-149 44z"/>
<path d="M3783 1240 c-527 -5 -543 -6 -557 -25 -22 -28 -20 -71 4 -95 20 -20
33 -20 1908 -20 1817 0 1890 1 1905 18 22 24 22 74 0 101 l-18 21 -1350 3
c-742 1 -1594 0 -1892 -3z"/>
<path d="M7269 1238 c-20 -16 -39 -52 -39 -73 0 -28 55 -75 88 -75 43 0 86 52
78 94 -4 17 -12 37 -20 44 -19 19 -88 25 -107 10z"/>
<path d="M7575 1225 c-54 -53 -21 -130 55 -130 52 0 80 27 80 76 0 71 -85 105
-135 54z"/>
<path d="M8125 1225 c-52 -51 -15 -135 59 -135 26 0 40 7 60 31 14 17 26 39
26 49 0 10 -12 32 -26 49 -33 40 -83 43 -119 6z"/>
<path d="M2635 1220 c-10 -11 -18 -34 -18 -50 0 -16 8 -39 18 -50 17 -19 30
-20 201 -20 178 0 183 1 198 22 23 32 20 65 -9 93 -24 25 -27 25 -198 25 -162
0 -175 -1 -192 -20z"/>
</g>
</svg>
